<?xml version="1.0" encoding="UTF-8" standalone="no"?>
<svg width="730px" height="310px" viewBox="0 0 730 310" version="1.1" xmlns="http://www.w3.org/2000/svg" xmlns:xlink="http://www.w3.org/1999/xlink" xmlns:sketch="http://www.bohemiancoding.com/sketch/ns">
    <!-- Generator: Sketch 3.0.2 (7799) - http://www.bohemiancoding.com/sketch -->
    <title>Slice 1</title>
    <description>Created with Sketch.</description>
    <defs></defs>
    <g id="Page-1" stroke="none" stroke-width="1" fill="none" fill-rule="evenodd" sketch:type="MSPage">
        <g id="StartupWeekend_PrimaryTransparent_V2" sketch:type="MSLayerGroup" fill="#FFFFFF">
            <path d="M395.301,116.223 C395.301,105.752 403.719,100.645 413.303,100.157 L413.303,84.573 C397.402,85.134 394.586,94.484 394.586,94.484 L394.586,84.673 L375.728,84.673 L375.728,144.033 L395.301,144.033 L395.301,116.223" id="Fill-1" sketch:type="MSShapeGroup"></path>
            <path d="M249.756,144.511 C253.657,143.394 257.117,141.689 260.14,139.379 C263.165,137.069 265.572,134.147 267.361,130.608 C269.152,127.066 270.046,122.868 270.046,118.017 C270.046,113.802 269.209,110.278 267.539,107.456 C265.869,104.631 263.759,102.262 261.213,100.355 C258.669,98.446 255.844,96.915 252.74,95.759 C249.64,94.607 246.656,93.553 243.79,92.598 C241.803,91.959 240.014,91.345 238.42,90.749 C236.829,90.15 235.459,89.495 234.305,88.779 C233.152,88.062 232.276,87.225 231.677,86.271 C231.082,85.317 230.783,84.122 230.783,82.691 C230.783,81.021 231.161,79.647 231.917,78.573 C232.673,77.5 233.606,76.625 234.721,75.946 C235.837,75.273 237.087,74.813 238.482,74.575 C239.87,74.338 241.244,74.215 242.597,74.215 C245.223,74.215 247.948,74.875 250.771,76.185 C253.594,77.5 255.882,79.271 257.633,81.496 L270.645,67.775 C266.903,64.351 262.548,61.768 257.576,60.017 C252.602,58.266 247.727,57.392 242.956,57.392 C238.978,57.392 235.039,57.889 231.141,58.882 C227.242,59.877 223.741,61.448 220.638,63.597 C217.537,65.745 215.032,68.49 213.12,71.832 C211.211,75.171 210.258,79.193 210.258,83.883 C210.258,87.704 210.871,90.945 212.105,93.611 C213.34,96.277 214.97,98.545 217.001,100.411 C219.03,102.282 221.333,103.814 223.92,105.009 C226.507,106.202 229.151,107.236 231.857,108.111 C234.64,108.987 237.125,109.801 239.315,110.556 C241.502,111.312 243.332,112.149 244.806,113.065 C246.278,113.979 247.41,114.993 248.206,116.107 C249,117.222 249.4,118.571 249.4,120.161 C249.4,121.837 249.082,123.267 248.446,124.461 C247.809,125.653 246.952,126.609 245.881,127.325 C244.806,128.039 243.553,128.559 242.119,128.874 C240.688,129.197 239.215,129.354 237.704,129.354 C234.362,129.354 231.002,128.5 227.62,126.788 C224.239,125.074 221.514,122.95 219.447,120.407 L206.081,134.008 C209.818,137.907 214.512,140.911 220.161,143.018 C225.81,145.123 231.659,146.181 237.704,146.181 C241.841,146.181 245.859,145.622 249.756,144.511" id="Fill-2" sketch:type="MSShapeGroup"></path>
            <path d="M418.857,132.961 C419.573,135.552 420.745,137.788 422.376,139.662 C424.008,141.536 426.176,142.971 428.882,143.971 C431.583,144.967 434.926,145.463 438.903,145.463 C440.25,145.463 441.594,145.379 442.939,145.23 L442.937,145.235 C446.353,145.013 451.192,143.804 455.64,142.454 C452.405,137.813 450.005,129.354 450.005,129.354 C449.287,129.673 448.394,129.91 447.32,130.068 C446.246,130.232 445.231,130.307 444.277,130.307 C441.489,130.307 439.563,129.61 438.489,128.212 C437.414,126.813 436.876,124.717 436.876,121.923 L436.876,99.16 L449.478,99.16 L449.478,84.601 L436.876,84.601 L436.876,68.968 L417.663,68.968 L417.783,124.286 C417.783,127.478 418.139,130.371 418.857,132.961" id="Fill-3" sketch:type="MSShapeGroup"></path>
            <path d="M459.286,138.004 C460.994,140.273 463.222,142.122 465.969,143.555 C468.714,144.986 472.075,145.703 476.053,145.703 C478.121,145.703 480.091,145.421 481.959,144.867 C483.83,144.311 485.541,143.595 487.091,142.718 C488.642,141.846 489.994,140.809 491.149,139.615 C492.302,138.424 493.236,137.15 493.954,135.796 L494.193,135.796 L494.193,144.033 L513.047,144.033 L513.047,84.601 L493.475,84.601 L493.475,116.702 C493.475,120.125 492.581,123.11 490.79,125.653 C489.001,128.2 486.393,129.472 482.974,129.472 C481.143,129.472 479.674,129.135 478.559,128.458 C477.444,127.783 476.549,126.847 475.875,125.653 C475.198,124.461 474.741,123.11 474.501,121.595 C474.262,120.083 474.142,118.492 474.142,116.824 L474.142,84.601 L454.453,84.601 L454.453,121.356 C454.453,124.383 454.828,127.343 455.585,130.247 C456.341,133.154 457.572,135.74 459.286,138.004" id="Fill-4" sketch:type="MSShapeGroup"></path>
            <path d="M539.058,108.589 C539.733,106.758 540.689,105.123 541.922,103.692 C543.156,102.262 544.647,101.109 546.399,100.234 C548.148,99.359 550.138,98.923 552.363,98.923 C554.67,98.923 556.699,99.359 558.45,100.234 C560.2,101.109 561.652,102.246 562.808,103.635 C563.958,105.029 564.837,106.638 565.432,108.47 C566.031,110.3 566.327,112.17 566.327,114.077 C566.327,115.988 566.031,117.879 565.432,119.746 C564.837,121.615 563.958,123.267 562.808,124.698 C561.652,126.134 560.2,127.286 558.45,128.161 C556.699,129.037 554.67,129.472 552.363,129.472 C550.138,129.472 548.148,129.037 546.399,128.161 C544.647,127.286 543.156,126.134 541.922,124.698 C540.689,123.267 539.733,121.639 539.058,119.807 C538.381,117.975 538.044,116.107 538.044,114.199 C538.044,112.29 538.381,110.417 539.058,108.589 M538.761,137.096 L539,137.468 C540.828,140.015 543.374,142.023 546.637,143.496 C549.899,144.967 553.359,145.703 557.02,145.703 C561.475,145.703 565.452,144.825 568.952,143.078 C572.453,141.329 575.418,138.999 577.845,136.097 C580.269,133.193 582.119,129.832 583.394,126.013 C584.665,122.19 585.301,118.217 585.301,114.077 C585.301,109.941 584.645,105.98 583.335,102.204 C582.021,98.426 580.152,95.103 577.726,92.238 C575.297,89.374 572.333,87.108 568.832,85.437 C565.332,83.763 561.437,82.93 557.139,82.93 C552.763,82.93 548.964,83.826 545.743,85.614 C542.52,87.404 539.993,89.495 538.163,91.879 L537.807,92.334 L537.807,84.601 L519.188,84.601 L519.188,172.673 L538.761,172.673 L538.761,137.096" id="Fill-5" sketch:type="MSShapeGroup"></path>
            <path d="M268.142,99.16 L277.689,99.16 L277.689,124.286 C277.689,127.478 278.048,130.371 278.765,132.96 C279.479,135.552 280.653,137.788 282.285,139.662 C283.915,141.539 286.082,142.971 288.791,143.971 C291.495,144.967 294.835,145.463 298.811,145.463 C300.881,145.463 302.951,145.286 305.018,144.927 C306.885,144.603 309.497,143.893 311.014,143.269 C308.545,139.598 306.784,135.121 305.636,130.25 C302.774,130.608 299.472,129.613 298.395,128.212 C297.323,126.813 296.785,124.717 296.785,121.923 L296.785,99.16 L309.607,99.16 L309.607,84.601 L296.785,84.601 L296.785,68.968 L277.572,68.968 L277.572,84.601 L268.142,84.601 L268.142,99.16" id="Fill-6" sketch:type="MSShapeGroup"></path>
            <path d="M349.462,118.135 L349.462,120.164 C349.462,123.902 348.407,126.868 346.301,129.054 C344.191,131.242 341.147,132.337 337.17,132.337 C336.214,132.337 335.218,132.237 334.187,132.039 C333.151,131.839 332.237,131.498 331.443,131.023 C330.647,130.548 329.988,129.908 329.473,129.114 C328.955,128.32 328.696,127.364 328.696,126.252 C328.696,124.502 329.251,123.09 330.368,122.013 C331.481,120.939 332.892,120.125 334.606,119.568 C336.314,119.012 338.262,118.636 340.451,118.434 C342.641,118.236 344.808,118.135 346.957,118.135 L349.462,118.135 L349.462,118.135 Z M335.618,107.513 C331.084,107.992 326.966,108.943 323.267,110.378 C319.568,111.809 316.542,113.839 314.196,116.463 C311.849,119.088 310.677,122.551 310.677,126.844 C310.677,130.349 311.351,133.292 312.705,135.677 C314.057,138.067 315.787,139.976 317.895,141.408 C320.001,142.838 322.331,143.875 324.877,144.511 C327.423,145.147 329.89,145.463 332.275,145.463 C335.855,145.463 339.179,144.789 342.243,143.435 C345.306,142.086 347.593,140.174 349.105,137.706 L349.462,137.706 L349.462,144.033 L367.364,144.033 L367.364,114.077 C367.364,108.667 366.864,103.994 365.871,100.057 C364.875,96.118 363.304,92.857 361.157,90.268 C359.009,87.686 356.204,85.774 352.742,84.541 C349.282,83.309 345.045,82.691 340.033,82.691 C335.18,82.691 330.428,83.525 325.772,85.198 C321.121,86.868 317.039,89.374 313.541,92.716 L323.446,103.338 C325.274,101.664 327.483,100.234 330.069,99.041 C332.653,97.848 335.338,97.252 338.125,97.252 C341.147,97.252 343.694,97.946 345.761,99.339 C347.833,100.733 348.864,102.901 348.864,105.843 L348.864,106.797 C344.569,106.797 340.152,107.035 335.618,107.513 L335.618,107.513 Z" id="Fill-7" sketch:type="MSShapeGroup"></path>
            <path d="M355.908,162.754 L334.666,162.754 L321.061,218.9641 L320.702,218.9641 L309.138,162.754 L287.896,162.754 L276.452,218.9641 L276.095,218.9641 L262.727,162.754 L240.77,162.754 L264.759,247.2508 L285.941,247.2508 L298.316,192.509 L310.693,247.2508 L331.801,247.2508 L355.908,162.754" id="Fill-8" sketch:type="MSShapeGroup"></path>
            <path d="M367.544,206.374 C368.261,204.983 369.216,203.771 370.41,202.736 C371.604,201.702 372.994,200.885 374.587,200.29 C376.178,199.691 377.93,199.393 379.837,199.393 C383.737,199.393 386.659,200.508 388.608,202.736 C390.556,204.963 391.533,207.627 391.533,210.7301 L366.351,210.7301 C366.428,209.2199 366.831,207.768 367.544,206.374 M407.286,236.507 L393.681,227.916 C392.327,229.748 390.58,231.2379 388.429,232.393 C386.281,233.548 383.656,234.1211 380.555,234.1211 C378.804,234.1211 377.112,233.8449 375.482,233.2871 C373.85,232.7328 372.379,231.9551 371.068,230.9602 C369.754,229.9648 368.68,228.7918 367.845,227.4379 C367.008,226.0859 366.51,224.5738 366.351,222.9031 L409.434,222.9031 C409.511,222.1871 409.554,221.432 409.554,220.6359 L409.554,218.2488 C409.554,213.159 408.818,208.622 407.345,204.644 C405.872,200.667 403.824,197.285 401.199,194.499 C398.574,191.715 395.431,189.589 391.772,188.116 C388.111,186.643 384.094,185.909 379.718,185.909 C375.183,185.909 370.965,186.665 367.07,188.175 C363.17,189.687 359.786,191.814 356.925,194.561 C354.061,197.306 351.795,200.646 350.122,204.585 C348.45,208.522 347.618,212.9199 347.618,217.7738 C347.618,222.784 348.47,227.241 350.182,231.1398 C351.89,235.0359 354.237,238.3191 357.222,240.9828 C360.208,243.648 363.687,245.6781 367.665,247.0711 C371.642,248.4602 375.86,249.157 380.315,249.157 C386.36,249.157 391.672,248.0629 396.246,245.877 C400.821,243.6871 404.498,240.5648 407.286,236.507" id="Fill-9" sketch:type="MSShapeGroup"></path>
            <path d="M431.806,210.7301 C431.885,209.2199 432.285,207.766 433,206.376 C433.715,204.983 434.67,203.771 435.865,202.736 C437.058,201.703 438.448,200.885 440.042,200.29 C441.632,199.693 443.384,199.393 445.291,199.393 C449.189,199.393 452.113,200.508 454.066,202.736 C456.01,204.963 456.987,207.627 456.987,210.7301 L431.806,210.7301 L431.806,210.7301 Z M466.653,194.501 C464.028,191.715 460.885,189.589 457.226,188.116 C453.565,186.643 449.547,185.909 445.174,185.909 C440.637,185.909 436.421,186.665 432.524,188.175 C428.624,189.687 425.243,191.814 422.379,194.561 C419.515,197.306 417.246,200.646 415.576,204.585 C413.906,208.522 413.072,212.9199 413.072,217.7738 C413.072,222.784 413.924,227.241 415.636,231.1398 C417.347,235.0359 419.692,238.3191 422.678,240.9828 C425.662,243.648 429.141,245.6781 433.12,247.0711 C437.096,248.4602 441.312,249.1602 445.77,249.1602 C451.816,249.1602 457.126,248.0629 461.703,245.877 C466.277,243.6898 469.955,240.5648 472.74,236.509 L459.135,227.916 C457.783,229.748 456.034,231.2379 453.883,232.393 C451.737,233.5449 449.112,234.1211 446.009,234.1211 C444.258,234.1211 442.566,233.843 440.936,233.2871 C439.305,232.7328 437.833,231.957 436.52,230.9602 C435.209,229.9648 434.134,228.7918 433.299,227.4379 C432.464,226.0859 431.964,224.5719 431.806,222.9031 L474.888,222.9031 C474.968,222.1871 475.008,221.432 475.008,220.6359 L475.008,218.2488 C475.008,213.159 474.272,208.622 472.799,204.644 C471.326,200.667 469.28,197.285 466.653,194.501 L466.653,194.501 Z" id="Fill-10" sketch:type="MSShapeGroup"></path>
            <path d="M553.653,210.7301 C553.73,209.2199 554.13,207.766 554.845,206.376 C555.56,204.983 556.518,203.771 557.709,202.736 C558.903,201.703 560.293,200.885 561.886,200.29 C563.478,199.693 565.229,199.393 567.136,199.393 C571.033,199.393 573.96,200.508 575.907,202.736 C577.855,204.963 578.832,207.627 578.832,210.7301 L553.653,210.7301 L553.653,210.7301 Z M588.501,194.501 C585.872,191.715 582.729,189.589 579.071,188.116 C575.41,186.643 571.392,185.909 567.016,185.909 C562.482,185.909 558.264,186.665 554.366,188.175 C550.469,189.687 547.088,191.814 544.224,194.561 C541.359,197.306 539.092,200.646 537.422,204.585 C535.749,208.522 534.916,212.9199 534.916,217.7738 C534.916,222.784 535.768,227.241 537.481,231.1398 C539.192,235.0359 541.537,238.3191 544.523,240.9828 C547.505,243.648 550.986,245.6781 554.965,247.0711 C558.941,248.4602 563.157,249.1602 567.615,249.1602 C573.659,249.1602 578.97,248.0629 583.547,245.877 C588.12,243.6898 591.798,240.5648 594.585,236.509 L580.98,227.916 C579.625,229.748 577.879,231.2379 575.73,232.393 C573.58,233.5449 570.955,234.1211 567.854,234.1211 C566.103,234.1211 564.411,233.843 562.781,233.2871 C561.15,232.7328 559.678,231.957 558.364,230.9602 C557.053,229.9648 555.977,228.7918 555.144,227.4379 C554.308,226.0859 553.809,224.5719 553.653,222.9031 L596.734,222.9031 C596.81,222.1871 596.853,221.432 596.853,220.6359 L596.853,218.2488 C596.853,213.159 596.117,208.622 594.644,204.644 C593.173,200.667 591.125,197.285 588.501,194.501 L588.501,194.501 Z" id="Fill-11" sketch:type="MSShapeGroup"></path>
            <path d="M655.007,193.843 C653.297,191.578 651.05,189.726 648.265,188.296 C645.482,186.862 642.099,186.145 638.122,186.145 C636.052,186.145 634.102,186.426 632.275,186.98 C630.444,187.541 628.752,188.256 627.202,189.132 C625.651,190.007 624.297,191.058 623.144,192.292 C621.991,193.527 621.055,194.781 620.34,196.053 L620.101,196.465 L620.101,187.818 L601.126,187.818 L601.126,247.2508 L620.819,247.2508 L620.819,215.027 C620.819,213.3551 621.036,211.7461 621.474,210.1949 C621.909,208.643 622.567,207.271 623.443,206.076 C624.316,204.883 625.412,203.949 626.726,203.271 C628.04,202.597 629.569,202.258 631.319,202.258 C633.069,202.258 634.521,202.597 635.674,203.271 C636.828,203.949 637.722,204.864 638.361,206.017 C638.995,207.17 639.453,208.507 639.732,210.0168 C640.012,211.5289 640.151,213.1199 640.151,214.7879 L640.151,247.2508 L659.843,247.2508 L659.843,210.4918 C659.843,207.552 659.463,204.606 658.709,201.661 C657.951,198.719 656.718,196.11 655.007,193.843" id="Fill-12" sketch:type="MSShapeGroup"></path>
            <path d="M709.877,223.025 C709.201,224.8551 708.246,226.4859 707.014,227.916 C705.778,229.348 704.286,230.5039 702.538,231.377 C700.786,232.252 698.798,232.691 696.57,232.691 C694.262,232.691 692.232,232.252 690.483,231.377 C688.734,230.5039 687.263,229.348 686.066,227.916 C684.875,226.4859 683.98,224.8328 683.384,222.9621 C682.786,221.0961 682.489,219.2031 682.489,217.293 C682.489,215.384 682.786,213.518 683.384,211.6859 C683.98,209.8559 684.875,208.246 686.066,206.852 C687.263,205.464 688.734,204.329 690.483,203.451 C692.232,202.576 694.262,202.139 696.57,202.139 C698.798,202.139 700.786,202.576 702.538,203.451 C704.286,204.329 705.778,205.478 707.014,206.912 C708.246,208.342 709.201,209.975 709.877,211.8031 C710.553,213.6371 710.893,215.5051 710.893,217.416 C710.893,219.3219 710.553,221.193 709.877,223.025 M710.055,157.027 L710.055,194.471 L709.818,194.143 C708.146,192.153 705.799,190.324 702.777,188.654 C699.753,186.98 696.053,186.145 691.678,186.145 C687.381,186.145 683.504,186.98 680.041,188.654 C676.579,190.324 673.636,192.59 671.211,195.456 C668.784,198.32 666.915,201.644 665.602,205.42 C664.291,209.2 663.632,213.159 663.632,217.293 C663.632,221.432 664.267,225.4102 665.542,229.2281 C666.815,233.048 668.663,236.409 671.093,239.3121 C673.517,242.218 676.479,244.5449 679.982,246.2918 C683.482,248.041 687.46,248.9199 691.917,248.9199 C695.893,248.9199 699.652,248.102 703.196,246.473 C706.732,244.843 709.46,242.5191 711.368,239.4941 L711.608,239.0359 L711.608,247.2508 L729.627,247.2508 L729.627,157.027 L710.055,157.027" id="Fill-13" sketch:type="MSShapeGroup"></path>
            <path d="M517.17,214.6711 L540.082,187.818 L516.335,187.818 L499.83,208.782 L499.83,162.754 L480.138,162.754 L480.138,247.2508 L499.83,247.2508 L499.83,222.3531 L516.811,247.2508 L541.039,247.2508 L517.17,214.6711" id="Fill-14" sketch:type="MSShapeGroup"></path>
            <path d="M517.635,284.1941 L513.772,284.1941 L513.772,297.5809 L511.474,297.5809 L511.474,284.1941 L508.761,284.1941 L508.761,283.1559 L511.474,282.325 L511.474,281.4809 C511.474,277.752 513.103,275.8879 516.361,275.8879 C517.164,275.8879 518.105,276.0488 519.185,276.3719 L518.59,278.2129 C517.704,277.927 516.947,277.784 516.32,277.784 C515.452,277.784 514.811,278.073 514.395,278.65 C513.98,279.227 513.772,280.152 513.772,281.425 L513.772,282.4078 L517.635,282.4078 L517.635,284.1941" id="Fill-15" sketch:type="MSShapeGroup"></path>
            <path d="M520.902,289.9809 C520.902,291.9191 521.29,293.3961 522.065,294.4109 C522.841,295.4258 523.98,295.934 525.485,295.934 C526.989,295.934 528.131,295.4281 528.911,294.418 C529.691,293.407 530.081,291.9281 530.081,289.9809 C530.081,288.052 529.691,286.5871 528.911,285.5852 C528.131,284.584 526.98,284.0828 525.457,284.0828 C523.953,284.0828 522.817,284.577 522.051,285.5641 C521.285,286.552 520.902,288.0238 520.902,289.9809 L520.902,289.9809 Z M532.462,289.9809 C532.462,292.4539 531.839,294.3852 530.593,295.7738 C529.347,297.1641 527.626,297.8578 525.429,297.8578 C524.073,297.8578 522.868,297.5391 521.816,296.902 C520.764,296.266 519.952,295.352 519.38,294.1621 C518.807,292.9711 518.521,291.5781 518.521,289.9809 C518.521,287.507 519.14,285.5809 520.376,284.2008 C521.613,282.8211 523.33,282.1309 525.526,282.1309 C527.649,282.1309 529.335,282.8371 530.586,284.2488 C531.836,285.6609 532.462,287.5719 532.462,289.9809 L532.462,289.9809 Z" id="Fill-16" sketch:type="MSShapeGroup"></path>
            <path d="M542.411,282.1309 C543.085,282.1309 543.689,282.1871 544.225,282.2969 L543.906,284.4289 C543.279,284.291 542.725,284.2219 542.245,284.2219 C541.018,284.2219 539.968,284.7199 539.096,285.7168 C538.224,286.7141 537.788,287.9551 537.788,289.441 L537.788,297.5809 L535.49,297.5809 L535.49,282.4078 L537.386,282.4078 L537.649,285.218 L537.76,285.218 C538.323,284.2309 539.001,283.4699 539.795,282.934 C540.589,282.3988 541.461,282.1309 542.411,282.1309" id="Fill-17" sketch:type="MSShapeGroup"></path>
            <path d="M565.489,297.5809 L554.207,297.5809 L554.207,277.341 L565.489,277.341 L565.489,279.432 L556.56,279.432 L556.56,285.952 L564.95,285.952 L564.95,288.0289 L556.56,288.0289 L556.56,295.477 L565.489,295.477 L565.489,297.5809" id="Fill-18" sketch:type="MSShapeGroup"></path>
            <path d="M578.693,297.5809 L578.693,287.766 C578.693,286.5289 578.411,285.6059 577.849,284.9969 C577.285,284.3879 576.404,284.0828 575.204,284.0828 C573.617,284.0828 572.454,284.5129 571.716,285.3711 C570.977,286.2289 570.608,287.6461 570.608,289.6211 L570.608,297.5809 L568.31,297.5809 L568.31,282.4078 L570.179,282.4078 L570.553,284.4848 L570.664,284.4848 C571.134,283.7371 571.794,283.1578 572.643,282.7469 C573.492,282.3371 574.438,282.1309 575.481,282.1309 C577.309,282.1309 578.684,282.5719 579.607,283.4531 C580.529,284.3352 580.991,285.7449 580.991,287.6828 L580.991,297.5809 L578.693,297.5809" id="Fill-19" sketch:type="MSShapeGroup"></path>
            <path d="M589.671,295.9609 C590.077,295.9609 590.469,295.9309 590.848,295.8711 C591.226,295.8109 591.526,295.7488 591.748,295.684 L591.748,297.4418 C591.498,297.5629 591.132,297.6621 590.647,297.7398 C590.162,297.818 589.727,297.8578 589.339,297.8578 C586.404,297.8578 584.937,296.3121 584.937,293.2199 L584.937,284.1941 L582.763,284.1941 L582.763,283.0871 L584.937,282.1309 L585.906,278.8918 L587.235,278.8918 L587.235,282.4078 L591.637,282.4078 L591.637,284.1941 L587.235,284.1941 L587.235,293.123 C587.235,294.0371 587.451,294.7379 587.885,295.227 C588.319,295.7168 588.914,295.9609 589.671,295.9609" id="Fill-20" sketch:type="MSShapeGroup"></path>
            <path d="M600.924,282.1309 C601.598,282.1309 602.202,282.1871 602.738,282.2969 L602.419,284.4289 C601.792,284.291 601.238,284.2219 600.758,284.2219 C599.531,284.2219 598.481,284.7199 597.609,285.7168 C596.737,286.7141 596.301,287.9551 596.301,289.441 L596.301,297.5809 L594.003,297.5809 L594.003,282.4078 L595.899,282.4078 L596.162,285.218 L596.273,285.218 C596.836,284.2309 597.514,283.4699 598.308,282.934 C599.102,282.3988 599.974,282.1309 600.924,282.1309" id="Fill-21" sketch:type="MSShapeGroup"></path>
            <path d="M610.209,284.0559 C608.99,284.0559 608.019,284.452 607.294,285.2461 C606.57,286.0398 606.143,287.1379 606.014,288.541 L613.946,288.541 C613.946,287.0918 613.623,285.982 612.977,285.2121 C612.331,284.441 611.408,284.0559 610.209,284.0559 L610.209,284.0559 Z M610.831,297.8578 C608.589,297.8578 606.819,297.175 605.523,295.809 C604.226,294.443 603.577,292.5469 603.577,290.1191 C603.577,287.6738 604.18,285.7309 605.384,284.291 C606.588,282.8512 608.206,282.1309 610.236,282.1309 C612.137,282.1309 613.642,282.757 614.749,284.007 C615.857,285.2578 616.411,286.907 616.411,288.9559 L616.411,290.4102 L605.958,290.4102 C606.005,292.191 606.455,293.543 607.308,294.466 C608.162,295.3891 609.364,295.8512 610.915,295.8512 C612.548,295.8512 614.163,295.509 615.76,294.8258 L615.76,296.875 C614.948,297.2262 614.179,297.477 613.455,297.6289 C612.73,297.782 611.856,297.8578 610.831,297.8578 L610.831,297.8578 Z" id="Fill-22" sketch:type="MSShapeGroup"></path>
            <path d="M626.07,284.0828 C624.519,284.0828 623.398,284.5129 622.706,285.3711 C622.013,286.2289 621.658,287.5949 621.64,289.468 L621.64,289.9809 C621.64,292.1129 621.995,293.6379 622.706,294.5559 C623.416,295.475 624.556,295.934 626.125,295.934 C627.435,295.934 628.462,295.4031 629.205,294.341 C629.948,293.2801 630.32,291.8168 630.32,289.9531 C630.32,288.0609 629.948,286.6098 629.205,285.5988 C628.462,284.5891 627.417,284.0828 626.07,284.0828 L626.07,284.0828 Z M626.402,297.8578 C625.414,297.8578 624.512,297.6758 623.695,297.3109 C622.879,296.9461 622.193,296.3859 621.64,295.6289 L621.473,295.6289 C621.584,296.5148 621.64,297.3551 621.64,298.1488 L621.64,304.3918 L619.342,304.3918 L619.342,282.4078 L621.211,282.4078 L621.529,284.4848 L621.64,284.4848 C622.23,283.6539 622.918,283.0539 623.702,282.6852 C624.487,282.316 625.387,282.1309 626.402,282.1309 C628.414,282.1309 629.967,282.8191 631.06,284.1941 C632.154,285.5691 632.701,287.498 632.701,289.9809 C632.701,292.473 632.145,294.4078 631.033,295.7879 C629.92,297.168 628.377,297.8578 626.402,297.8578 L626.402,297.8578 Z" id="Fill-23" sketch:type="MSShapeGroup"></path>
            <path d="M642.656,282.1309 C643.33,282.1309 643.935,282.1871 644.47,282.2969 L644.151,284.4289 C643.524,284.291 642.97,284.2219 642.49,284.2219 C641.263,284.2219 640.213,284.7199 639.341,285.7168 C638.469,286.7141 638.033,287.9551 638.033,289.441 L638.033,297.5809 L635.735,297.5809 L635.735,282.4078 L637.631,282.4078 L637.894,285.218 L638.005,285.218 C638.568,284.2309 639.246,283.4699 640.04,282.934 C640.834,282.3988 641.706,282.1309 642.656,282.1309" id="Fill-24" sketch:type="MSShapeGroup"></path>
            <path d="M651.941,284.0559 C650.722,284.0559 649.751,284.452 649.027,285.2461 C648.302,286.0398 647.875,287.1379 647.746,288.541 L655.678,288.541 C655.678,287.0918 655.355,285.982 654.709,285.2121 C654.063,284.441 653.14,284.0559 651.941,284.0559 L651.941,284.0559 Z M652.564,297.8578 C650.321,297.8578 648.551,297.175 647.255,295.809 C645.958,294.443 645.309,292.5469 645.309,290.1191 C645.309,287.6738 645.912,285.7309 647.116,284.291 C648.32,282.8512 649.938,282.1309 651.968,282.1309 C653.869,282.1309 655.374,282.757 656.481,284.007 C657.589,285.2578 658.143,286.907 658.143,288.9559 L658.143,290.4102 L647.691,290.4102 C647.737,292.191 648.187,293.543 649.04,294.466 C649.894,295.3891 651.096,295.8512 652.646,295.8512 C654.28,295.8512 655.895,295.509 657.492,294.8258 L657.492,296.875 C656.68,297.2262 655.911,297.477 655.187,297.6289 C654.462,297.782 653.588,297.8578 652.564,297.8578 L652.564,297.8578 Z" id="Fill-25" sketch:type="MSShapeGroup"></path>
            <path d="M671.456,297.5809 L671.456,287.766 C671.456,286.5289 671.175,285.6059 670.612,284.9969 C670.049,284.3879 669.168,284.0828 667.968,284.0828 C666.38,284.0828 665.217,284.5129 664.479,285.3711 C663.741,286.2289 663.372,287.6461 663.372,289.6211 L663.372,297.5809 L661.074,297.5809 L661.074,282.4078 L662.943,282.4078 L663.316,284.4848 L663.427,284.4848 C663.898,283.7371 664.557,283.1578 665.407,282.7469 C666.256,282.3371 667.202,282.1309 668.245,282.1309 C670.072,282.1309 671.447,282.5719 672.37,283.4531 C673.293,284.3352 673.754,285.7449 673.754,287.6828 L673.754,297.5809 L671.456,297.5809" id="Fill-26" sketch:type="MSShapeGroup"></path>
            <path d="M683.295,284.0559 C682.077,284.0559 681.105,284.452 680.381,285.2461 C679.656,286.0398 679.23,287.1379 679.1,288.541 L687.033,288.541 C687.033,287.0918 686.71,285.982 686.064,285.2121 C685.418,284.441 684.495,284.0559 683.295,284.0559 L683.295,284.0559 Z M683.918,297.8578 C681.675,297.8578 679.906,297.175 678.609,295.809 C677.312,294.443 676.664,292.5469 676.664,290.1191 C676.664,287.6738 677.266,285.7309 678.47,284.291 C679.675,282.8512 681.292,282.1309 683.323,282.1309 C685.224,282.1309 686.728,282.757 687.836,284.007 C688.943,285.2578 689.497,286.907 689.497,288.9559 L689.497,290.4102 L679.045,290.4102 C679.091,292.191 679.541,293.543 680.395,294.466 C681.248,295.3891 682.451,295.8512 684.001,295.8512 C685.635,295.8512 687.25,295.509 688.846,294.8258 L688.846,296.875 C688.034,297.2262 687.266,297.477 686.541,297.6289 C685.817,297.782 684.942,297.8578 683.918,297.8578 L683.918,297.8578 Z" id="Fill-27" sketch:type="MSShapeGroup"></path>
            <path d="M694.559,282.4078 L694.559,292.2512 C694.559,293.4879 694.841,294.4109 695.404,295.0199 C695.967,295.6289 696.848,295.934 698.048,295.934 C699.635,295.934 700.796,295.5 701.53,294.632 C702.263,293.7648 702.63,292.348 702.63,290.382 L702.63,282.4078 L704.928,282.4078 L704.928,297.5809 L703.032,297.5809 L702.7,295.5461 L702.575,295.5461 C702.104,296.2941 701.451,296.866 700.616,297.2621 C699.781,297.659 698.828,297.8578 697.757,297.8578 C695.911,297.8578 694.529,297.4199 693.611,296.543 C692.693,295.666 692.234,294.2629 692.234,292.334 L692.234,282.4078 L694.559,282.4078" id="Fill-28" sketch:type="MSShapeGroup"></path>
            <path d="M715.611,282.1309 C716.285,282.1309 716.89,282.1871 717.425,282.2969 L717.107,284.4289 C716.479,284.291 715.925,284.2219 715.445,284.2219 C714.218,284.2219 713.168,284.7199 712.296,285.7168 C711.424,286.7141 710.988,287.9551 710.988,289.441 L710.988,297.5809 L708.69,297.5809 L708.69,282.4078 L710.586,282.4078 L710.849,285.218 L710.96,285.218 C711.523,284.2309 712.201,283.4699 712.995,282.934 C713.789,282.3988 714.661,282.1309 715.611,282.1309" id="Fill-29" sketch:type="MSShapeGroup"></path>
            <path d="M729.614,293.4418 C729.614,294.8539 729.088,295.943 728.036,296.709 C726.984,297.475 725.507,297.8578 723.606,297.8578 C721.594,297.8578 720.025,297.5391 718.899,296.902 L718.899,294.7711 C719.628,295.1398 720.41,295.4309 721.245,295.643 C722.08,295.8551 722.886,295.9609 723.661,295.9609 C724.861,295.9609 725.784,295.7699 726.43,295.3871 C727.076,295.0039 727.399,294.4199 727.399,293.6359 C727.399,293.0449 727.143,292.5398 726.631,292.1199 C726.118,291.7 725.119,291.2039 723.633,290.632 C722.221,290.1051 721.218,289.6461 720.622,289.2539 C720.027,288.8621 719.584,288.416 719.293,287.918 C719.003,287.4199 718.857,286.8238 718.857,286.132 C718.857,284.8949 719.36,283.9199 720.366,283.2039 C721.372,282.4891 722.752,282.1309 724.505,282.1309 C726.139,282.1309 727.736,282.4641 729.295,283.1281 L728.479,284.9969 C726.956,284.3691 725.576,284.0559 724.339,284.0559 C723.25,284.0559 722.429,284.2262 721.875,284.568 C721.322,284.909 721.045,285.3801 721.045,285.9801 C721.045,286.3859 721.148,286.732 721.356,287.018 C721.564,287.3039 721.898,287.577 722.36,287.8352 C722.821,288.0941 723.707,288.4668 725.018,288.9559 C726.817,289.6121 728.033,290.2711 728.665,290.9359 C729.298,291.6 729.614,292.4359 729.614,293.4418" id="Fill-30" sketch:type="MSShapeGroup"></path>
            <path d="M252.166,287.6 L254.284,287.6 C256.37,287.6 257.879,287.2629 258.811,286.5891 C259.743,285.9148 260.209,284.8359 260.209,283.3488 C260.209,282.0109 259.771,281.0148 258.894,280.359 C258.017,279.7039 256.651,279.3762 254.796,279.3762 L252.166,279.3762 L252.166,287.6 L252.166,287.6 Z M262.646,283.2391 C262.646,285.2879 261.946,286.8641 260.548,287.966 C259.15,289.0691 257.15,289.6211 254.547,289.6211 L252.166,289.6211 L252.166,297.5809 L249.812,297.5809 L249.812,277.341 L255.059,277.341 C260.117,277.341 262.646,279.307 262.646,283.2391 L262.646,283.2391 Z" id="Fill-31" sketch:type="MSShapeGroup"></path>
            <path d="M266.765,289.9809 C266.765,291.9191 267.153,293.3961 267.928,294.4109 C268.703,295.4258 269.843,295.934 271.348,295.934 C272.852,295.934 273.994,295.4281 274.774,294.418 C275.554,293.407 275.944,291.9281 275.944,289.9809 C275.944,288.052 275.554,286.5871 274.774,285.5852 C273.994,284.584 272.843,284.0828 271.32,284.0828 C269.815,284.0828 268.68,284.577 267.914,285.5641 C267.148,286.552 266.765,288.0238 266.765,289.9809 L266.765,289.9809 Z M278.325,289.9809 C278.325,292.4539 277.702,294.3852 276.456,295.7738 C275.21,297.1641 273.489,297.8578 271.292,297.8578 C269.935,297.8578 268.731,297.5391 267.679,296.902 C266.627,296.266 265.815,295.352 265.242,294.1621 C264.67,292.9711 264.384,291.5781 264.384,289.9809 C264.384,287.507 265.002,285.5809 266.239,284.2008 C267.476,282.8211 269.192,282.1309 271.389,282.1309 C273.512,282.1309 275.198,282.8371 276.449,284.2488 C277.699,285.6609 278.325,287.5719 278.325,289.9809 L278.325,289.9809 Z" id="Fill-32" sketch:type="MSShapeGroup"></path>
            <path d="M293.765,297.5809 L290.982,288.6789 C290.807,288.1352 290.479,286.898 290,284.9691 L289.889,284.9691 C289.52,286.584 289.197,287.8301 288.92,288.707 L286.054,297.5809 L283.396,297.5809 L279.257,282.4078 L281.666,282.4078 C282.644,286.2199 283.389,289.1219 283.901,291.116 C284.414,293.109 284.707,294.452 284.781,295.1441 L284.891,295.1441 C284.993,294.618 285.157,293.9379 285.383,293.1031 C285.609,292.2668 285.805,291.6051 285.971,291.116 L288.754,282.4078 L291.246,282.4078 L293.959,291.116 C294.476,292.7031 294.826,294.0371 295.011,295.1168 L295.122,295.1168 C295.159,294.784 295.258,294.2719 295.419,293.5801 C295.581,292.8879 296.543,289.1641 298.306,282.4078 L300.687,282.4078 L296.492,297.5809 L293.765,297.5809" id="Fill-33" sketch:type="MSShapeGroup"></path>
            <path d="M308.225,284.0559 C307.007,284.0559 306.035,284.452 305.311,285.2461 C304.586,286.0398 304.16,287.1379 304.031,288.541 L311.963,288.541 C311.963,287.0918 311.64,285.982 310.994,285.2121 C310.348,284.441 309.425,284.0559 308.225,284.0559 L308.225,284.0559 Z M308.848,297.8578 C306.605,297.8578 304.836,297.175 303.539,295.809 C302.242,294.443 301.594,292.5469 301.594,290.1191 C301.594,287.6738 302.196,285.7309 303.401,284.291 C304.605,282.8512 306.222,282.1309 308.253,282.1309 C310.154,282.1309 311.658,282.757 312.766,284.007 C313.873,285.2578 314.427,286.907 314.427,288.9559 L314.427,290.4102 L303.975,290.4102 C304.021,292.191 304.471,293.543 305.325,294.466 C306.178,295.3891 307.381,295.8512 308.931,295.8512 C310.565,295.8512 312.18,295.509 313.776,294.8258 L313.776,296.875 C312.964,297.2262 312.196,297.477 311.471,297.6289 C310.747,297.782 309.872,297.8578 308.848,297.8578 L308.848,297.8578 Z" id="Fill-34" sketch:type="MSShapeGroup"></path>
            <path d="M324.28,282.1309 C324.954,282.1309 325.558,282.1871 326.094,282.2969 L325.775,284.4289 C325.147,284.291 324.594,284.2219 324.114,284.2219 C322.886,284.2219 321.837,284.7199 320.964,285.7168 C320.092,286.7141 319.656,287.9551 319.656,289.441 L319.656,297.5809 L317.358,297.5809 L317.358,282.4078 L319.255,282.4078 L319.518,285.218 L319.629,285.218 C320.191,284.2309 320.87,283.4699 321.664,282.934 C322.457,282.3988 323.329,282.1309 324.28,282.1309" id="Fill-35" sketch:type="MSShapeGroup"></path>
            <path d="M333.564,284.0559 C332.346,284.0559 331.375,284.452 330.65,285.2461 C329.926,286.0398 329.499,287.1379 329.37,288.541 L337.302,288.541 C337.302,287.0918 336.979,285.982 336.333,285.2121 C335.687,284.441 334.764,284.0559 333.564,284.0559 L333.564,284.0559 Z M334.187,297.8578 C331.945,297.8578 330.175,297.175 328.878,295.809 C327.581,294.443 326.933,292.5469 326.933,290.1191 C326.933,287.6738 327.535,285.7309 328.74,284.291 C329.944,282.8512 331.561,282.1309 333.592,282.1309 C335.493,282.1309 336.997,282.757 338.105,284.007 C339.212,285.2578 339.766,286.907 339.766,288.9559 L339.766,290.4102 L329.314,290.4102 C329.36,292.191 329.81,293.543 330.664,294.466 C331.517,295.3891 332.72,295.8512 334.27,295.8512 C335.904,295.8512 337.519,295.509 339.116,294.8258 L339.116,296.875 C338.303,297.2262 337.535,297.477 336.81,297.6289 C336.086,297.782 335.212,297.8578 334.187,297.8578 L334.187,297.8578 Z" id="Fill-36" sketch:type="MSShapeGroup"></path>
            <path d="M348.593,295.934 C350.162,295.934 351.299,295.507 352.005,294.6531 C352.712,293.8 353.065,292.4219 353.065,290.5211 L353.065,290.0359 C353.065,287.8859 352.707,286.352 351.992,285.4328 C351.276,284.5148 350.134,284.0559 348.565,284.0559 C347.218,284.0559 346.186,284.5801 345.471,285.627 C344.756,286.675 344.398,288.1531 344.398,290.0641 C344.398,292.002 344.754,293.4648 345.464,294.452 C346.175,295.4398 347.218,295.934 348.593,295.934 L348.593,295.934 Z M353.189,295.5461 L353.065,295.5461 C352.003,297.0871 350.416,297.8578 348.302,297.8578 C346.318,297.8578 344.774,297.1801 343.672,295.823 C342.569,294.466 342.017,292.5371 342.017,290.0359 C342.017,287.5352 342.571,285.5918 343.678,284.2078 C344.786,282.8238 346.327,282.1309 348.302,282.1309 C350.36,282.1309 351.938,282.8789 353.037,284.3738 L353.217,284.3738 L353.12,283.2801 L353.065,282.2141 L353.065,276.0398 L355.363,276.0398 L355.363,297.5809 L353.494,297.5809 L353.189,295.5461 L353.189,295.5461 Z" id="Fill-37" sketch:type="MSShapeGroup"></path>
            <path d="M373.761,284.0828 C372.192,284.0828 371.062,284.5328 370.37,285.4328 C369.678,286.3328 369.331,287.8488 369.331,289.9809 C369.331,292.1129 369.687,293.6379 370.397,294.5559 C371.108,295.475 372.248,295.934 373.817,295.934 C375.229,295.934 376.281,295.4191 376.973,294.3898 C377.665,293.3609 378.011,291.882 378.011,289.9531 C378.011,287.9781 377.665,286.5059 376.973,285.5371 C376.281,284.568 375.21,284.0828 373.761,284.0828 L373.761,284.0828 Z M374.094,282.159 C376.087,282.159 377.635,282.8398 378.738,284.2008 C379.841,285.5621 380.392,287.4891 380.392,289.9809 C380.392,292.473 379.836,294.4078 378.724,295.7879 C377.612,297.168 376.069,297.8578 374.094,297.8578 C373.106,297.8578 372.204,297.6758 371.387,297.3109 C370.57,296.9461 369.885,296.3859 369.331,295.6289 L369.165,295.6289 L368.681,297.5809 L367.033,297.5809 L367.033,276.0398 L369.331,276.0398 L369.331,281.273 C369.331,282.4449 369.294,283.4969 369.221,284.4289 L369.331,284.4289 C370.402,282.916 371.989,282.159 374.094,282.159 L374.094,282.159 Z" id="Fill-38" sketch:type="MSShapeGroup"></path>
            <path d="M380.978,282.4078 L383.442,282.4078 L386.764,291.0609 C387.493,293.0359 387.945,294.4609 388.121,295.3379 L388.232,295.3379 C388.352,294.868 388.603,294.0621 388.986,292.923 C389.369,291.7828 390.622,288.2781 392.744,282.4078 L395.209,282.4078 L388.689,299.68516 C388.042,301.39297 387.288,302.60391 386.425,303.31914 C385.562,304.03398 384.503,304.3918 383.248,304.3918 C382.546,304.3918 381.854,304.31406 381.171,304.15703 L381.171,302.31602 C381.679,302.42578 382.246,302.48203 382.874,302.48203 C384.452,302.48203 385.578,301.59609 386.252,299.82383 L387.097,297.6641 L380.978,282.4078" id="Fill-39" sketch:type="MSShapeGroup"></path>
            <path d="M479.659,275.4102 L477.314,276.5328 L479.703,276.5328 L479.703,276.55 L479.703,276.5371 L479.703,295.8371 C479.703,296.4629 479.577,296.5531 478.861,297.4898 L484.386,297.4898 L485.539,296.8059 C485.012,296.743 484.479,296.7109 483.946,296.648 C482.917,296.5531 482.7,296.3691 482.7,295.152 L482.7,277.452 C482.706,277.3852 482.711,277.3191 482.719,277.2531 C482.845,276.1621 483.157,275.9711 484.123,275.4102 L479.659,275.4102 L479.659,275.4102 Z M405.048,287.8051 C405.048,292.7691 408.33,299.10586 416.946,299.10586 C418.657,299.10586 420.283,298.8578 422.095,298.5789 L426.561,297.5469 L426.561,293.7398 C426.561,293.4238 426.589,292.5168 426.621,292.2398 C426.687,291.9898 426.712,291.9281 426.936,291.741 L427.749,290.959 L421.129,290.959 L418.63,292.3 L423.345,292.0508 L423.345,297.075 C422.406,297.4531 421.382,297.8551 419.38,297.8551 C412.574,297.8551 408.33,292.3309 408.33,286.4629 C408.33,281.002 412.043,277.2551 416.976,277.2551 C420.66,277.2551 422.595,279.159 423.659,280.1852 L422.873,281.4352 L423.967,281.1891 L426.561,278.7238 C425.873,278.2531 424.777,277.4418 422.438,276.7852 C420.972,276.3762 419.348,276.1301 417.665,276.1301 C409.7,276.1301 405.048,281.7469 405.048,287.8051 L405.048,287.8051 Z M446.564,290.7051 C446.564,294.1789 449.199,298.0328 454.14,298.0328 C459.2,298.0328 462.026,294.1508 462.026,290.4891 C462.026,286.7301 459.172,283.159 454.607,283.159 C449.887,283.159 446.564,286.6371 446.564,290.7051 L446.564,290.7051 Z M449.574,288.968 C449.574,287.6309 449.792,286.2648 451.003,285.177 C451.745,284.5258 452.774,284.123 453.799,284.123 C457.649,284.123 458.955,289.3371 458.955,292.0711 C458.955,293.282 458.768,294.525 458.022,295.5168 C457.308,296.5102 456.064,297.0988 454.856,297.0988 C451.096,297.0988 449.574,292.0391 449.574,288.968 L449.574,288.968 Z M429.123,290.7051 C429.123,294.1789 431.763,298.0328 436.703,298.0328 C441.767,298.0328 444.593,294.1508 444.593,290.4891 C444.593,286.7301 441.734,283.159 437.167,283.159 C432.45,283.159 429.123,286.6371 429.123,290.7051 L429.123,290.7051 Z M432.137,288.968 C432.137,287.6309 432.356,286.2648 433.567,285.177 C434.311,284.5258 435.337,284.123 436.362,284.123 C440.212,284.123 441.517,289.3371 441.517,292.0711 C441.517,293.282 441.329,294.525 440.587,295.5168 C439.871,296.5102 438.628,297.0988 437.414,297.0988 C433.659,297.0988 432.137,292.0391 432.137,288.968 L432.137,288.968 Z M485.761,290.3309 C485.761,292.6559 486.727,295.325 488.925,296.8762 C490.507,298.0211 492.06,298.082 493.052,298.082 C493.981,298.082 495.035,297.9578 496.06,297.4918 C496.399,297.3391 496.741,297.123 497.081,296.9359 L498.723,295.3828 C497.671,295.9121 496.525,296.4699 494.943,296.4699 C491.995,296.4699 489.328,294.175 488.553,290.2371 L490.941,290.0531 L498.227,287.1051 C498.011,286.391 497.608,285.059 496.06,284.0371 C495.129,283.448 493.981,283.1711 492.865,283.1711 C489.673,283.1711 485.761,285.5238 485.761,290.3309 L485.761,290.3309 Z M488.433,288.502 C488.433,285.1551 490.753,284.1941 491.995,284.1941 C493.669,284.1941 495.067,285.616 495.067,286.857 C495.067,287.291 494.755,287.4781 494.168,287.6941 L488.523,290.143 C488.491,289.5879 488.433,289.0309 488.433,288.502 L488.433,288.502 Z M471.275,283.5988 C469.597,283.5988 467.481,283.8512 465.706,285.3121 C464.369,286.4609 463.72,288.0508 463.72,289.4789 C463.72,291.9051 465.585,294.3609 468.882,294.3609 C469.192,294.3609 469.536,294.3289 469.879,294.3008 C469.722,294.6719 469.565,294.984 469.565,295.5148 C469.565,296.4762 470.063,297.068 470.497,297.6301 C469.097,297.723 466.485,297.8781 464.558,299.06094 C462.721,300.14883 462.165,301.73398 462.165,302.85312 C462.165,305.15898 464.342,307.30312 468.852,307.30312 C474.199,307.30312 477.031,304.35 477.031,301.42383 C477.031,299.27812 475.785,298.2219 474.415,297.068 L473.3,296.1988 C472.955,295.9168 472.488,295.5469 472.488,294.8629 C472.488,294.175 472.955,293.7398 473.361,293.3371 C474.664,292.309 475.973,291.2199 475.973,288.9168 C475.973,286.557 474.483,285.3121 473.763,284.7191 L475.693,284.7191 L477.683,283.5988 L471.275,283.5988 L471.275,283.5988 Z M466.452,287.9559 C466.452,287.148 466.611,286.3078 467.141,285.6551 C467.638,285.0328 468.509,284.6262 469.32,284.6262 C471.898,284.6262 473.235,288.1098 473.235,290.352 C473.235,290.9121 473.172,291.9051 472.458,292.6219 C471.96,293.1191 471.121,293.4941 470.342,293.4941 C467.671,293.4941 466.452,290.0379 466.452,287.9559 L466.452,287.9559 Z M464.9,302.20195 C464.9,299.99102 466.892,299.25 467.573,298.9988 C468.882,298.5602 470.56,298.5 470.839,298.5 C471.153,298.5 471.308,298.5 471.553,298.532 C473.92,300.21211 474.948,301.04688 474.948,302.63711 C474.948,304.56602 473.361,305.99805 470.375,305.99805 C467.047,305.99805 464.9,304.41094 464.9,302.20195 L464.9,302.20195 Z" id="Fill-40" sketch:type="MSShapeGroup"></path>
            <path d="M103.189,37.973 C113.791,37.973 122.38,29.373 122.38,18.777 C122.38,8.178 113.791,-0.414 103.189,-0.414 C92.5879,-0.414 83.9961,8.178 83.9961,18.777 C83.9961,29.373 92.5879,37.973 103.189,37.973" id="Fill-41" sketch:type="MSShapeGroup"></path>
            <path d="M134.857,60.777 C143.233,60.777 150.024,53.989 150.024,45.618 C150.024,37.242 143.233,30.451 134.857,30.451 C126.481,30.451 119.695,37.242 119.695,45.618 C119.695,53.989 126.481,60.777 134.857,60.777" id="Fill-42" sketch:type="MSShapeGroup"></path>
            <path d="M211.565,264.898 C208.629,266.925 204.995,269.141 200.569,271.3691 L200.569,253.6461 C200.569,242.3391 191.373,233.1391 180.067,233.1391 C175.581,233.1391 171.231,234.6191 167.682,237.3121 L167.682,282.8168 C167.389,282.884 167.098,282.952 166.807,283.0211 C163.521,283.7461 160.143,284.3918 156.688,284.973 L156.688,185.06 C156.688,173.753 147.488,164.553 136.181,164.553 C124.879,164.553 115.681,173.753 115.681,185.06 L115.681,204.897 C132.418,205.612 145.811,219.45 145.811,236.3609 L145.811,286.5078 C142.224,286.923 138.555,287.268 134.819,287.5371 L134.819,236.3609 C134.819,225.0559 125.619,215.8559 114.312,215.8559 C103.011,215.8559 93.8102,225.0559 93.8102,236.3609 L93.8102,287.5371 C90.0719,287.268 86.4078,286.923 82.816,286.5078 L82.816,236.3609 C82.816,224.5871 89.3094,214.3008 98.9098,208.896 C98.1371,198.29 89.2594,189.894 78.457,189.894 C67.1578,189.894 57.9547,199.089 57.9547,210.3961 L57.9547,240.973 C66.2211,246.6559 71.6535,256.1801 71.6535,266.9449 L71.6535,284.9258 C68.5562,284.4051 65.5305,283.8258 62.5746,283.1852 C61.9316,283.0461 61.293,282.8969 60.657,282.7531 L60.657,266.9449 C60.657,255.6379 51.4594,246.4398 40.1574,246.4398 C28.9648,246.4398 19.8414,255.4539 19.6602,266.6051 C12.5164,258.107 16.7145,246.0199 22.6012,236.0699 L81.6289,142.476 C81.6289,142.476 81.7156,143.996 81.7156,119.639 C91.5695,121.224 102.64,122.068 114.121,122.068 C121.066,122.068 127.865,121.758 134.335,121.162 L134.335,147.682 C122.576,150.002 117.929,158.045 122.857,156.244 C128.329,154.247 130.11,154.14 134.335,153.614 L134.335,153.619 C134.949,153.584 135.565,153.567 136.181,153.567 C153.551,153.567 167.682,167.693 167.682,185.06 L167.682,196.531 C167.95,199.303 169.808,201.603 172.339,202.507 C181.224,204.976 187.744,213.1211 187.744,222.791 L187.744,223.0941 C201.413,226.5289 211.565,238.9211 211.565,253.6461 L211.565,264.898 L211.565,264.898 Z M190.872,255.1758 C188.944,254.9949 187.446,253.2691 187.727,251.3559 C188.142,248.5238 191.264,246.5621 194.386,248.182 C195.435,248.7281 196.16,249.7758 196.383,250.9391 C197.101,254.6691 194.17,255.4891 190.872,255.1758 L190.872,255.1758 Z M192.466,265.984 C192.466,265.984 188.75,267.268 184.635,267.268 C180.521,267.268 176.892,265.9988 176.892,265.9988 C175.889,265.6578 175.345,264.5699 175.683,263.5621 C175.946,262.775 176.686,262.273 177.471,262.2531 C177.471,262.2531 181.659,262.5141 184.635,262.5141 C187.61,262.5141 191.701,262.273 191.701,262.273 L191.922,262.2828 C192.976,262.3148 193.79,263.1941 193.76,264.243 C193.741,265.057 193.197,265.7379 192.466,265.984 L192.466,265.984 Z M172.881,250.934 C173.104,249.7711 173.834,248.7281 174.885,248.182 C178.007,246.5648 181.122,248.5141 181.54,251.3508 C181.823,253.2691 180.325,254.9949 178.395,255.1809 C175.106,255.4891 172.158,254.6691 172.881,250.934 L172.881,250.934 Z M124.119,184.867 C124.119,182.432 126.098,180.462 128.53,180.462 C130.964,180.462 132.932,182.432 132.932,184.867 C132.932,187.296 130.964,188.101 128.53,188.101 C126.098,188.101 124.119,187.296 124.119,184.867 L124.119,184.867 Z M127.03,196.432 C127.293,195.637 128.031,195.14 128.816,195.12 C128.816,195.12 133.006,195.383 135.982,195.383 C138.958,195.383 143.051,195.14 143.051,195.14 L143.27,195.145 C144.323,195.182 145.138,196.057 145.108,197.11 C145.088,197.925 144.542,198.605 143.814,198.851 C143.814,198.851 140.095,200.138 135.982,200.138 C131.869,200.138 128.237,198.866 128.237,198.866 C127.234,198.523 126.692,197.44 127.03,196.432 L127.03,196.432 Z M143.434,188.101 C140.999,188.101 139.025,187.296 139.025,184.867 C139.025,182.437 140.999,180.462 143.434,180.462 C145.868,180.462 147.843,182.437 147.843,184.867 C147.843,187.296 145.868,188.101 143.434,188.101 L143.434,188.101 Z M121.769,238.75 C119.335,238.75 117.36,237.9449 117.36,235.5109 C117.36,233.082 119.335,231.1121 121.769,231.1121 C124.203,231.1121 126.178,233.082 126.178,235.5109 C126.178,237.9449 124.203,238.75 121.769,238.75 L121.769,238.75 Z M122.149,249.5008 C122.149,249.5008 118.431,250.7801 114.317,250.7801 C110.206,250.7801 106.572,249.5129 106.572,249.5129 C105.571,249.173 105.025,248.0852 105.363,247.0762 C105.629,246.2859 106.366,245.7871 107.151,245.7668 C107.151,245.7668 111.342,246.0309 114.317,246.0309 C117.29,246.0309 121.384,245.7871 121.384,245.7871 L121.605,245.7918 C122.658,245.827 123.473,246.7059 123.438,247.7539 C123.423,248.5738 122.877,249.25 122.149,249.5008 L122.149,249.5008 Z M102.454,235.5109 C102.454,233.0789 104.434,231.1121 106.865,231.1121 C109.297,231.1121 111.27,233.0789 111.27,235.5109 C111.27,237.9449 109.297,238.75 106.865,238.75 C104.434,238.75 102.454,237.9449 102.454,235.5109 L102.454,235.5109 Z M76.1867,208.779 C76.1867,206.347 78.1613,204.375 80.593,204.375 C83.0297,204.375 85.002,206.347 85.002,208.779 C85.002,211.2078 83.0297,212.0129 80.593,212.0129 C78.1613,212.0129 76.1867,211.2078 76.1867,208.779 L76.1867,208.779 Z M62.1551,208.779 C62.1551,206.347 64.1348,204.375 66.5688,204.375 C69.0008,204.375 70.9703,206.347 70.9703,208.779 C70.9703,211.2078 69.0008,212.0129 66.5688,212.0129 C64.1348,212.0129 62.1551,211.2078 62.1551,208.779 L62.1551,208.779 Z M81.0008,222.7641 C81.0008,222.7641 77.282,224.048 73.1688,224.048 C69.0578,224.048 65.4262,222.7789 65.4262,222.7789 C64.4203,222.4359 63.8762,221.35 64.2145,220.3418 C64.4824,219.5488 65.2176,219.05 66.0051,219.0328 C66.0051,219.0328 70.193,219.2941 73.1688,219.2941 C76.1445,219.2941 80.2355,219.05 80.2355,219.05 L80.4539,219.0551 C81.5098,219.0949 82.3246,219.9691 82.2922,221.0219 C82.2723,221.8371 81.7309,222.518 81.0008,222.7641 L81.0008,222.7641 Z M49.7652,266.8711 C47.3312,266.8711 45.3535,266.066 45.3535,263.632 C45.3535,261.202 47.3312,259.2301 49.7652,259.2301 C52.1992,259.2301 54.1715,261.202 54.1715,263.632 C54.1715,266.066 52.1992,266.8711 49.7652,266.8711 L49.7652,266.8711 Z M34.8617,266.8711 C32.4301,266.8711 30.448,266.066 30.448,263.632 C30.448,261.2 32.4301,259.2301 34.8617,259.2301 C37.2934,259.2301 39.2605,261.2 39.2605,263.632 C39.2605,266.066 37.2934,266.8711 34.8617,266.8711 L34.8617,266.8711 Z M59.6414,88.734 L59.6438,88.729 L59.6465,88.729 C59.3309,88.257 59.3555,87.641 59.6465,87.279 L59.6438,87.263 C59.8398,87.018 60.148,86.717 60.5258,86.387 C61.1637,85.828 62.0633,85.167 63.3918,84.432 C65.4934,83.267 68.5809,81.936 73.0594,80.631 C83.9191,77.472 98.4449,75.731 113.964,75.731 L113.97,75.731 C129.491,75.731 144.022,77.472 154.877,80.631 C159.356,81.936 162.446,83.267 164.547,84.432 C165.873,85.167 166.773,85.828 167.414,86.387 C167.789,86.717 168.099,87.018 168.293,87.263 L168.29,87.279 C168.581,87.641 168.608,88.257 168.29,88.729 L168.293,88.729 L168.295,88.734 C167.476,89.752 165.2,91.615 160.044,93.622 C160.044,93.622 160.051,93.622 160.056,93.627 C159.691,93.771 159.266,93.913 158.874,94.055 C158.514,94.184 158.178,94.312 157.796,94.445 C156.892,94.75 155.928,95.058 154.877,95.366 C154.855,95.371 154.828,95.381 154.805,95.386 C148.061,92.373 133.794,88.875 113.731,88.875 C93.8523,88.875 79.6715,92.308 72.8582,95.302 C71.8918,95.016 70.9855,94.73 70.1484,94.445 C69.7605,94.312 69.423,94.184 69.0652,94.055 C68.6676,93.913 68.243,93.771 67.8805,93.627 C67.8855,93.622 67.8902,93.622 67.898,93.622 C62.7387,91.615 60.4633,89.752 59.6414,88.734 L59.6414,88.734 Z M222.8,234.7781 L222.77,234.7359 L161.745,137.751 L161.745,121.268 C165.762,116.964 175.981,107.599 178.536,91.983 L178.536,91.983 C179.006,87.519 179.446,80.139 168.121,74.66 C168.121,74.66 168.134,74.657 168.156,74.648 C165.255,73.189 161.782,71.868 157.771,70.7 C146.559,67.437 131.911,65.571 116.307,65.405 C111.093,70.263 104.382,70.087 105.964,69.484 C107.586,68.873 109.789,66.895 110.959,65.104 C112.206,63.179 112.936,60.889 112.936,58.428 C112.936,51.629 107.429,46.12 100.633,46.12 C93.8398,46.12 88.3281,51.629 88.3281,58.428 C88.3281,61.575 89.5152,64.446 91.4602,66.622 C83.591,67.521 76.3582,68.897 70.1684,70.7 C66.1516,71.873 62.6742,73.195 59.773,74.652 C59.7828,74.657 59.7902,74.66 59.7902,74.66 C59.3109,74.896 58.8488,75.132 58.4043,75.375 C57.6242,75.81 56.8918,76.252 56.2109,76.702 C48.8711,81.667 48.9504,87.571 49.3305,91.516 C51.7598,107.348 62.1426,116.921 66.2012,121.268 L66.2012,137.751 L5.19883,234.6961 L5.14648,234.7781 C1.77852,240.3648 0,246.7758 0,253.3328 C0,261.443 2.7793,269.3941 7.8168,275.723 C8.55938,276.6719 15.2758,284.8539 31.25,292.8031 C40.7637,297.5352 51.7324,301.29492 63.859,303.98789 C78.8719,307.31406 95.7352,309 113.97,309 C132.212,309 149.07,307.31406 164.085,303.98789 C176.209,301.29492 187.181,297.5352 196.694,292.8031 C212.685,284.8441 219.4,276.652 220.13,275.723 C225.17,269.3891 227.947,261.4379 227.947,253.3328 C227.947,246.7758 226.168,240.3648 222.8,234.7781 L222.8,234.7781 Z" id="Fill-43" sketch:type="MSShapeGroup"></path>
        </g>
    </g>
</svg>